<svg xmlns="http://www.w3.org/2000/svg" viewBox="0 0 200 200" fill="none">
  <!-- Husky face logo -->
  <!-- Outer face - dark fur -->
  <path d="M100 22C68 22 40 40 28 64L18 94L12 104C8 112 8 122 12 130L22 150L32 164L48 176L68 186L100 194L132 186L152 176L168 164L178 150L188 130C192 122 192 112 188 104L182 94L172 64C160 40 132 22 100 22Z" fill="#1e1e2e"/>
  <!-- White face mask hourglass -->
  <path d="M100 44C82 44 66 52 56 66L48 82L42 96C38 104 38 114 42 122L52 140L62 154L76 166L90 174L100 180L110 174L124 166L138 154L148 140L158 122C162 114 162 104 158 96L152 82L144 66C134 52 118 44 100 44Z" fill="#f5f4f0"/>
  <!-- Dark center stripe -->
  <path d="M94 64L100 59L106 64L116 86L114 90L108 84L106 88L112 98L110 102L104 94L100 98L96 94L90 102L88 98L94 88L92 84L86 90L84 86L94 64Z" fill="#1e1e2e"/>
  <!-- Left eye - warm gold -->
  <ellipse cx="76" cy="104" rx="9" ry="8" fill="#CAA564"/>
  <ellipse cx="76" cy="104" rx="5" ry="5" fill="#1e1e2e"/>
  <circle cx="73" cy="101" r="2" fill="#f5f4f0" opacity="0.5"/>
  <!-- Right eye - warm gold -->
  <ellipse cx="124" cy="104" rx="9" ry="8" fill="#CAA564"/>
  <ellipse cx="124" cy="104" rx="5" ry="5" fill="#1e1e2e"/>
  <circle cx="121" cy="101" r="2" fill="#f5f4f0" opacity="0.5"/>
  <!-- Tan eyebrows -->
  <path d="M60 90L72 86L80 88" stroke="#A08050" stroke-width="3.5" stroke-linecap="round" fill="none"/>
  <path d="M140 90L128 86L120 88" stroke="#A08050" stroke-width="3.5" stroke-linecap="round" fill="none"/>
  <!-- Nose -->
  <ellipse cx="100" cy="128" rx="7" ry="5" fill="#1e1e2e"/>
  <!-- Mouth -->
  <path d="M100 133L100 138" stroke="#1e1e2e" stroke-width="2"/>
  <path d="M90 138C90 138 96 144 100 144C104 144 110 138 110 138" stroke="#1e1e2e" stroke-width="2" fill="none" stroke-linecap="round"/>
  <!-- Left ear -->
  <path d="M28 66C18 44 26 20 40 18C50 16 58 24 54 40L48 58L36 74L28 66Z" fill="#1e1e2e"/>
  <path d="M32 62C26 46 30 28 38 26C44 24 48 32 46 42L42 54L36 68L32 62Z" fill="#f5f4f0"/>
  <!-- Right ear -->
  <path d="M172 66C182 44 174 20 160 18C150 16 142 24 146 40L152 58L164 74L172 66Z" fill="#1e1e2e"/>
  <path d="M168 62C174 46 170 28 162 26C156 24 152 32 154 42L158 54L164 68L168 62Z" fill="#f5f4f0"/>
</svg>
